<svg xmlns="http://www.w3.org/2000/svg" width="1080" height="1080" version="1.0" viewBox="0 0 1080 1080">
    <path d="M738 363.6c-12.5 1.1-28.8 3.9-40.5 6.8-85.8 22-148.8 91.8-160.1 177.6-1.9 15-1.4 43.1 1.1 58 7.5 44.5 28.7 84.8 61.1 116.1 28.1 27 61.2 45.2 101 55.3 28.9 7.4 70.3 7.6 103.4.4 28.7-6.1 65.3-24 89.5-43.6 9.4-7.7 28.7-27.2 28.2-28.6-.3-.9-40.5-35.6-59.5-51.4l-4.4-3.6-2.6 3.5c-5 6.5-18.7 20.1-25.2 24.9-15.9 11.7-35.2 20.1-54.2 23.7-13.2 2.4-36.9 2.2-50.1-.6-27.5-5.8-50.3-18.3-68.2-37.2-20.2-21.5-31.5-47.3-34.5-78.9-4-40.8 8.9-78.2 36.4-105.6 14.6-14.6 28.7-23.5 47.8-30.2 26.9-9.5 62.5-9.7 88.1-.5 22.2 7.9 44.6 23.8 57.7 40.8 2.3 3 4.6 5.5 4.9 5.5 1 0 63.5-52.8 63.9-53.9.5-1.4-16.5-18.7-26.8-27.3-38.8-32.4-86.4-50.1-137.5-51.3-8.2-.1-17-.1-19.5.1zM180 573.5V779h81V659h197l-.2-36.3-.3-36.2-98.2-.3-98.3-.2V440h229v-72H180v205.5zM696.1 811c-5.6 1.2-12.4 5.2-15.1 9-5.1 7.1-6.4 12-6.5 23.1 0 10.2.1 10.9 3.5 17.5 2.7 5.3 4.6 7.6 8.3 10.1 12.4 8.3 33 6.1 41.7-4.5 4.6-5.6 6.5-12.3 6.5-23.2 0-15.6-4.4-24.4-14.8-29.4-5.9-2.9-16.5-4.1-23.6-2.6zm17.7 13.1c4.3 2.7 6.7 9.5 6.7 18.9 0 14.6-5.1 21.3-16.2 21.3-8.6 0-13.5-4.7-15.4-14.7-1.8-9.8.3-19.5 5.1-24.1 4.6-4.4 14-5 19.8-1.4zM175 811.7c0 .6 14.5 57.8 15.6 61.6.5 1.5 1.6 1.7 8.2 1.5l7.7-.3 3.2-12.5c1.8-6.9 4.4-17.2 5.7-23 1.3-5.8 2.6-9.8 2.9-9 .2.8 2.8 11.3 5.8 23.2l5.3 21.8h15.5l1-3.8c.5-2 3.9-15.4 7.5-29.7 3.7-14.3 6.9-27 7.2-28.3.6-2.1.4-2.2-5.9-2.2h-6.6l-1 3.7c-1.8 6.7-8.9 37.7-9.7 42.3l-.7 4.5-1.8-8.5c-1-4.7-3.8-15.9-6.2-25l-4.3-16.5h-12.9l-4.2 16c-2.4 8.8-5.1 20-6.2 25-1.8 8.7-1.9 8.9-2.6 5-.7-4.3-9.3-41.8-10.1-44.8-.4-1.4-1.7-1.7-7-1.7-3.5 0-6.4.3-6.4.7zM269 843v32h37v-11h-23v-17h21v-11h-21v-14h23v-11h-37v32zM319 843.1v32.1l16.8-.4c13.8-.3 17.3-.7 20.2-2.2 7.5-3.9 10.3-8.4 10.2-16.2 0-6.9-2.4-11.1-7.3-13.3l-4-1.8 3-1.3c4.1-1.6 6.2-5.2 6.7-11.3 1.3-13.1-7.6-17.7-33.8-17.7H319v32.1zm30.1-18.5c2.5 2.2 2.4 6.9-.1 9.4-1.6 1.6-3.3 2-9 2h-7v-14.3l7.1.6c4.6.4 7.8 1.2 9 2.3zm.2 24.7c2.2 1.4 2.7 2.5 2.7 6.1 0 6.2-2.2 7.8-11.5 8.4l-7.5.5v-17.5l6.8.4c4.3.2 7.9 1 9.5 2.1zM402 843.1v32.1l14.8-.4c17-.6 21.7-1.9 28.5-7.9 7.1-6.2 9.1-11.4 9.2-23.9 0-11.9-1.6-16.9-7.6-22.8-6.8-6.9-15.2-9.2-33.6-9.2H402v32.1zm31.1-18.4c4.9 2.9 7.2 7.5 7.7 15.9 1 15.3-6.1 23.4-20.5 23.4H416v-42.3l7 .6c4 .3 8.3 1.4 10.1 2.4zM469 843v32h36v-11h-23v-17h22.1l-.3-5.3-.3-5.2-10.7-.3-10.8-.3V822h23v-11h-36v32zM511 811.9c0 .5 4.7 14.8 10.5 31.7s10.5 30.9 10.5 31.1c0 .2 3.4.3 7.5.3s7.5-.1 7.5-.3c0-.1 4.7-14.1 10.5-31 5.8-17 10.5-31.3 10.5-31.8s-2.9-.9-6.5-.9h-6.4l-6.5 20.2c-3.6 11.2-7.1 22.7-7.8 25.7l-1.4 5.5-1.2-5.5c-.7-3-4.1-14.4-7.6-25.4l-6.4-20-6.6-.3c-3.8-.2-6.6.1-6.6.7zM577 843v32h36v-11h-23v-17h22.1l-.3-5.3-.3-5.2-10.7-.3-10.8-.3V822h23v-11h-36v32zM627 843v32h39v-11h-26v-53h-13v32zM748 842.9V875h14v-23h6.4c10.9 0 19-4.3 22.2-11.7.8-1.8 1.4-5.9 1.4-9.1 0-8.3-3.1-13.9-9.4-17.1-4.4-2.3-6.3-2.5-19.7-2.9l-14.9-.4v32.1zm26-19.1c4.3 2.1 5.9 6.6 4 11.2-1.6 3.9-5.6 6-11.5 6H762v-19h4.3c2.3 0 5.8.8 7.7 1.8zM804 843v32h37v-11h-23v-17h21v-11h-21v-14h23v-11h-37v32zM854 843v32h14v-24h3.8c3.7.1 3.8.2 11 12l7.4 12H905l-9-13.6-9.1-13.5 4.4-3.9c5.6-5 7.1-8.5 6.5-15.8-.9-12.9-9.2-17.2-32.9-17.2H854v32zm27.5-18.6c4.6 3 4 11.2-1 13.4-1.3.6-4.7 1.4-7.5 1.8l-5 .7v-18.6l5.6.6c3 .3 6.6 1.2 7.9 2.1z"/>
    <style>
        path { fill: #000; }
        @media (prefers-color-scheme: dark) {
            path { fill: #FFF; }
        }
    </style>
</svg>